<svg xmlns="http://www.w3.org/2000/svg" xmlns:xlink="http://www.w3.org/1999/xlink" viewBox="0 0 500 500" width="500" height="500" preserveAspectRatio="xMidYMid meet" style="width: 100%; height: 100%; transform: translate3d(0px, 0px, 0px); content-visibility: visible;"><defs><clipPath id="__lottie_element_2"><rect width="500" height="500" x="0" y="0"/></clipPath><filter id="__lottie_element_6" x="-100%" y="-100%" width="300%" height="300%"><feGaussianBlur result="filter_result_0" stdDeviation="52.5 52.5" edgeMode="wrap"/></filter><g id="__lottie_element_7"><g clip-path="url(#__lottie_element_8)" transform="matrix(1,0,0,1,0,0)" opacity="1" style="display: block;"><g transform="matrix(1.0000009536743164,0,0,0.9999989867210388,248.3280029296875,336.56829833984375)" opacity="1" style="display: block;"><g opacity="1" transform="matrix(1,0,0,1,0,0)"><path stroke-linecap="round" stroke-linejoin="round" fill-opacity="0" stroke="rgb(8,168,138)" stroke-opacity="1" stroke-width="12" d=" M11,-16.211000442504883 C11,-16.211000442504883 -11,0 -11,0 C-11,0 11,16.211000442504883 11,16.211000442504883"/></g></g><g transform="matrix(1.0000009536743164,0,0,0.9999989867210388,332.5740661621094,336.56829833984375)" opacity="1" style="display: block;"><g opacity="1" transform="matrix(1,0,0,1,0,0)"><path stroke-linecap="round" stroke-linejoin="round" fill-opacity="0" stroke="rgb(8,168,138)" stroke-opacity="1" stroke-width="12" d=" M-11,-16.211000442504883 C-11,-16.211000442504883 11,0 11,0 C11,0 -11,16.211000442504883 -11,16.211000442504883"/></g></g><g transform="matrix(1.0000009536743164,0,0,0.9999989867210388,290.20904541015625,336.56829833984375)" opacity="1" style="display: block;"><g opacity="1" transform="matrix(1,0,0,1,0,0)"><path stroke-linecap="round" stroke-linejoin="round" fill-opacity="0" stroke="rgb(8,168,138)" stroke-opacity="1" stroke-width="12" d=" M5.251999855041504,-16.211000442504883 C5.251999855041504,-16.211000442504883 -5.251999855041504,16.211000442504883 -5.251999855041504,16.211000442504883"/></g></g><g mask="url(#__lottie_element_27_2)" style="display: block;"><g transform="matrix(1.0000009536743164,0,0,0.9999989867210388,250,225.30142211914062)" opacity="1"><g opacity="1" transform="matrix(1,0,0,1,0,0)"><path stroke-linecap="round" stroke-linejoin="round" fill-opacity="0" stroke="rgb(18,19,49)" stroke-opacity="1" stroke-width="12" d=" M33.86000061035156,9.991268157958984 C33.86000061035156,9.991268157958984 33.86000061035156,28.9312686920166 33.86000061035156,28.9312686920166 C33.86000061035156,47.5612678527832 18.610000610351562,62.80126953125 -0.019999999552965164,62.80126953125 C-18.649999618530273,62.80126953125 -33.88999938964844,47.5612678527832 -33.88999938964844,28.9312686920166 C-33.88999938964844,28.9312686920166 -33.88999938964844,10.001267433166504 -33.88999938964844,10.001267433166504"/></g></g></g><g transform="matrix(1.0000009536743164,0,0,0.9999989867210388,250,225.30142211914062)" opacity="1" style="display: block;"><g opacity="1" transform="matrix(1,0,0,1,0,0)"><path stroke-linecap="round" stroke-linejoin="round" fill-opacity="0" stroke="rgb(18,19,49)" stroke-opacity="1" stroke-width="12" d=" M33.880001068115234,26.690000534057617 C33.880001068115234,26.690000534057617 41.5,26.690000534057617 41.5,26.690000534057617 C87.33999633789062,26.690000534057617 124.5,63.849998474121094 124.5,109.69000244140625 C124.5,109.69000244140625 124.5,137.4499969482422 124.5,137.4499969482422 C124.5,145.07000732421875 118.79000091552734,151.47999572753906 111.22000122070312,152.35000610351562 C111.22000122070312,152.35000610351562 82.18000030517578,155.7100067138672 82.18000030517578,155.7100067138672 C74.23999786376953,156.6300048828125 66.4800033569336,158.66000366210938 59.11000061035156,161.74000549316406 C40.20000076293945,169.64999389648438 20.110000610351562,173.6199951171875 0,173.66000366210938 C-0.10000000149011612,173.66000366210938 -0.20000000298023224,173.66000366210938 -0.30000001192092896,173.66000366210938 C-20.399999618530273,173.66000366210938 -40.5,169.72999572753906 -59.41999816894531,161.86000061035156 C-59.41999816894531,161.86000061035156 -59.619998931884766,161.77999877929688 -59.619998931884766,161.77999877929688 C-67.30999755859375,158.5800018310547 -75.41000366210938,156.47999572753906 -83.69000244140625,155.52000427246094 C-83.69000244140625,155.52000427246094 -111.22000122070312,152.35000610351562 -111.22000122070312,152.35000610351562 C-118.79000091552734,151.47999572753906 -124.5,145.07000732421875 -124.5,137.4499969482422 C-124.5,137.4499969482422 -124.5,109.69000244140625 -124.5,109.69000244140625 C-124.5,63.849998474121094 -87.33999633789062,26.690000534057617 -41.5,26.690000534057617 C-41.5,26.690000534057617 -33.869998931884766,26.690000534057617 -33.869998931884766,26.690000534057617"/></g></g><g transform="matrix(1.0000009536743164,0,0,0.9999989867210388,250,231.20811462402344)" opacity="1" style="display: block;"><g opacity="1" transform="matrix(1,0,0,1,0,0)"><path stroke-linecap="round" stroke-linejoin="round" fill-opacity="0" stroke="rgb(18,19,49)" stroke-opacity="1" stroke-width="12" d=" M60.89799880981445,-76.63200378417969 C60.89799880981445,-76.63200378417969 59.57400131225586,-39.5369987487793 59.57400131225586,-39.5369987487793 C58.45800018310547,-7.441999912261963 32.1150016784668,18 0,18 C0,18 0,18 0,18 C-32.1150016784668,18 -58.45800018310547,-7.441999912261963 -59.57400131225586,-39.5369987487793 C-59.57400131225586,-39.5369987487793 -60.64400100708008,-79.66200256347656 -60.64400100708008,-79.66200256347656"/></g></g><g transform="matrix(1.0000009536743164,0,0,0.9999989867210388,246.1409912109375,105.89524841308594)" opacity="1" style="display: block;"><g opacity="1" transform="matrix(1,0,0,1,0,0)"><path stroke-linecap="round" stroke-linejoin="round" fill-opacity="0" stroke="rgb(8,168,138)" stroke-opacity="1" stroke-width="12" d=" M-57.090999603271484,46.053001403808594 C-18.01099967956543,44.42300033569336 8.61168384552002,30.204221725463867 27.519588470458984,1.2791911363601685 C49.412994384765625,19.22273826599121 54.456695556640625,34.816986083984375 64.69499969482422,49.48400115966797 C79.07499694824219,29.83799934387207 76.25599670410156,-7.493862628936768 66.19200134277344,-24.608009338378906 C57.816001892089844,-38.851966857910156 42.5260009765625,-43.469154357910156 42.5260009765625,-43.469154357910156 C20.733999252319336,-49.33161163330078 -1.555999994277954,-45.25091552734375 -12.609000205993652,-40.90410614013672 C-17.201000213623047,-39.09856033325195 -21.864843368530273,-37.576717376708984 -27.35142707824707,-38.34933853149414 C-27.35142707824707,-38.34933853149414 -44.38526153564453,-41.59872055053711 -44.38526153564453,-41.59872055053711 C-50.27449417114258,-42.75651168823242 -59.60140609741211,-41.343963623046875 -63.81640625,-35.09506607055664 C-69.21040344238281,-27.098644256591797 -71.92879486083984,-16.73106575012207 -73.89099884033203,-3.8919742107391357 C-78.09481811523438,23.656856536865234 -56.98400115966797,45.941001892089844 -56.98400115966797,45.941001892089844"/></g></g><g transform="matrix(1.0000009536743164,0,0,0.9999989867210388,212.80296325683594,169.5883331298828)" opacity="1" style="display: block;"><g opacity="1" transform="matrix(1,0,0,1,0,0)"><path stroke-linecap="round" stroke-linejoin="round" fill-opacity="0" stroke="rgb(18,19,49)" stroke-opacity="1" stroke-width="12" d=" M23.243000030517578,14.473999977111816 C23.243000030517578,14.473999977111816 -23.243000030517578,14.473999977111816 -23.243000030517578,14.473999977111816 C-23.243000030517578,14.473999977111816 -23.243000030517578,-14.473999977111816 -23.243000030517578,-14.473999977111816 C-23.243000030517578,-14.473999977111816 23.243000030517578,-14.473999977111816 23.243000030517578,-14.473999977111816 C23.243000030517578,-14.473999977111816 23.243000030517578,14.473999977111816 23.243000030517578,14.473999977111816z"/></g></g><g transform="matrix(1.0000009536743164,0,0,0.9999989867210388,287.2310485839844,169.5883331298828)" opacity="1" style="display: block;"><g opacity="1" transform="matrix(1,0,0,1,0,0)"><path stroke-linecap="round" stroke-linejoin="round" fill-opacity="0" stroke="rgb(18,19,49)" stroke-opacity="1" stroke-width="12" d=" M23.243000030517578,14.473999977111816 C23.243000030517578,14.473999977111816 -23.243000030517578,14.473999977111816 -23.243000030517578,14.473999977111816 C-23.243000030517578,14.473999977111816 -23.243000030517578,-14.473999977111816 -23.243000030517578,-14.473999977111816 C-23.243000030517578,-14.473999977111816 23.243000030517578,-14.473999977111816 23.243000030517578,-14.473999977111816 C23.243000030517578,-14.473999977111816 23.243000030517578,14.473999977111816 23.243000030517578,14.473999977111816z"/></g></g><g transform="matrix(1.0000009536743164,0,0,0.9999989867210388,250.01699829101562,166.58834838867188)" opacity="1" style="display: block;"><g opacity="1" transform="matrix(1,0,0,1,0,0)"><path stroke-linecap="round" stroke-linejoin="round" fill-opacity="0" stroke="rgb(18,19,49)" stroke-opacity="1" stroke-width="12" d=" M13.970999717712402,0 C13.970999717712402,0 -13.970999717712402,0 -13.970999717712402,0"/></g></g></g></g><clipPath id="__lottie_element_8"><path d="M0,0 L500,0 L500,500 L0,500z"/></clipPath><mask id="__lottie_element_7_1" mask-type="alpha"><use xmlns:ns1="http://www.w3.org/1999/xlink" ns1:href="#__lottie_element_7"/></mask><g id="__lottie_element_27"><g transform="matrix(1.0000009536743164,0,0,0.9999989867210388,250,231.20811462402344)" opacity="1" style="display: block;"><g opacity="1" transform="matrix(1,0,0,1,0,0)"><path fill="rgb(255,0,0)" fill-opacity="1" d=" M-1.940000057220459,-157 C-1.940000057220459,-157 1.940000057220459,-157 1.940000057220459,-157 C35.67399978637695,-157 62.6870002746582,-129.031005859375 61.513999938964844,-95.31800079345703 C61.513999938964844,-95.31800079345703 59.57400131225586,-39.5369987487793 59.57400131225586,-39.5369987487793 C58.45800018310547,-7.441999912261963 32.1150016784668,18 0,18 C0,18 0,18 0,18 C-32.1150016784668,18 -58.45800018310547,-7.441999912261963 -59.57400131225586,-39.5369987487793 C-59.57400131225586,-39.5369987487793 -61.513999938964844,-95.31800079345703 -61.513999938964844,-95.31800079345703 C-62.6870002746582,-129.031005859375 -35.67399978637695,-157 -1.940000057220459,-157z"/></g></g></g><filter id="__lottie_element_45" filterUnits="objectBoundingBox" x="0%" y="0%" width="100%" height="100%"><feComponentTransfer in="SourceGraphic"><feFuncA type="table" tableValues="1.0 0.0"/></feComponentTransfer></filter><mask id="__lottie_element_27_2" mask-type="alpha"><g filter="url(#__lottie_element_45)"><rect width="500" height="500" x="0" y="0" fill="#ffffff" opacity="0"/><use xmlns:ns2="http://www.w3.org/1999/xlink" ns2:href="#__lottie_element_27"/></g></mask></defs><g clip-path="url(#__lottie_element_2)"><g mask="url(#__lottie_element_7_1)" style="display: block;"><g filter="url(#__lottie_element_6)" transform="matrix(1.4760030508041382,-1.8924627304077148,1.8924627304077148,1.4760030508041382,271.9410095214844,270.4599914550781)" opacity="1"><g class="design" opacity="1" transform="matrix(1,0,0,1,0,0)"><path fill="rgb(75,225,236)" fill-opacity="1" d=" M0,-250 C137.97500610351562,-250 250,-137.97500610351562 250,0 C250,137.97500610351562 137.97500610351562,250 0,250 C-137.97500610351562,250 -250,137.97500610351562 -250,0 C-250,-137.97500610351562 -137.97500610351562,-250 0,-250z"/></g><g class="design" opacity="1" transform="matrix(1,0,0,1,113.24199676513672,-118.88400268554688)"><path fill="rgb(203,94,238)" fill-opacity="1" d=" M0,-176.5 C97.47799682617188,-176.5 176.5,-97.47799682617188 176.5,0 C176.5,97.47799682617188 97.47799682617188,176.5 0,176.5 C-43.948001861572266,176.5 -74.39600372314453,142.4429931640625 -105.29000091552734,115.86900329589844 C-142.92100524902344,83.5 -176.5,53.53099822998047 -176.5,0 C-176.5,-97.47799682617188 -97.47799682617188,-176.5 0,-176.5z"/></g></g></g><g style="display: none;"><path/></g></g></svg>